
<svg version="1.1" id="Layer_1" xmlns="http://www.w3.org/2000/svg" xmlns:xlink="http://www.w3.org/1999/xlink" x="0px" y="0px"
	 viewBox="0 0 72 79" style="enable-background:new 0 0 72 79;" xml:space="preserve">
<style type="text/css">
	.st0{fill:#FFFFFF;}
</style>
<g>
	<g>
		<path class="st0" d="M13.8,79V18.8L5,25.8l-5-6.3L21.8,2.2v59.9l6.9-5.5v-35C28.7,9.7,38.4,0,50.3,0C62.3,0,72,9.7,72,21.7
			c0,6.6-2.9,12.7-8,16.8l-0.1,0.1L36.7,60.5v17.9h-8.1V67L13.8,79z M50.3,8.1c-7.5,0-13.6,6.1-13.6,13.6v28.4l22.2-17.9
			c3.2-2.6,5-6.4,5-10.6C63.9,14.2,57.8,8.1,50.3,8.1"/>
		<polygon class="st0" points="46.2,74.7 46.2,75.4 45.3,75.4 45.3,78.4 44.6,78.4 44.6,75.4 43.6,75.4 43.6,74.7 		"/>
		<polygon class="st0" points="48.6,76.9 49.9,74.7 50.4,74.7 50.4,78.4 49.7,78.4 49.7,76.4 48.9,77.8 48.4,77.8 47.5,76.4 
			47.5,78.4 46.8,78.4 46.8,74.7 47.3,74.7 		"/>
	</g>
</g>
</svg>
